<svg xmlns="http://www.w3.org/2000/svg" width="24" height="24" viewBox="0 0 38.154 33.818"><g transform="translate(-1.588 -2.91)"><path d="M2.482,273.453a.867.867,0,0,0-.2,1.716l3.242.712.833,3.966s0,0,0,.008l4.132,18.714a.867.867,0,0,0,.847.68h23.4a.867.867,0,1,0,0-1.734H12.035l-.8-3.613H35.922a.867.867,0,0,0,.847-.68l2.952-13.367a.867.867,0,0,0-.847-1.054q-15.483,0-30.966,0l-.8-3.82a.867.867,0,0,0-.663-.669l-3.788-.832a.873.873,0,0,0-.172-.023Zm5.8,7.078q14.755.007,29.511,0l-2.569,11.633H10.854Zm8.6,20.55a3.1,3.1,0,1,0,3.088,3.1A3.1,3.1,0,0,0,16.886,301.08Zm12.437,0a3.1,3.1,0,1,0,3.088,3.1A3.1,3.1,0,0,0,29.323,301.08Z" transform="translate(0 -270.542)"/></g></svg>